<svg xmlns="http://www.w3.org/2000/svg" viewBox="0 0 13000 18000" shape-rendering="geometricPrecision" text-rendering="geometricPrecision" image-rendering="optimizeQuality" fill-rule="evenodd" clip-rule="evenodd">
  <path d="M7036 11305c18-27 139-114 188-123 32 47 62 102 43 164-44 15-189-11-230-42zm-1836-287c12 6 136 93 199 115 0 0 456 255 638 330 137 57 669 262 828 296 70 15 92 9 126 49-335-21-821-215-1105-345l-601-373c-62-55-23-3-85-73zm-560-534c93 39 54 92 112 141 29 24 42 19 72 54 30 34 21 33 60 64l141 110c27 23 109 102 114 131l-149-95c-64-43-62-74-128-123-66-48-69-90-110-140-40-48-91-49-111-142zm2612 946c0 84-98 204-146 251-352 26-1091-351-1358-483-51-25-80-56-136-85a2562 2562 0 0 1-663-490c-76-81-196-123-100-292 108-188 123-52 234 33 153 117 381 284 549 367 159 79 426 241 607 322 207 94 427 200 650 270l363 107zm-1943-1029c-77-12-77-45-181-124-286-218-34-214 108-107 51 38 85 147 73 231zm2620-1388c7-70 17-102 57-142 156-157 256 57 236 100-64 63-200 94-293 42zm-465-235c0-82 119-261 271-136 155 127-111 306-271 136zm-519-84c3-2-11-38 56 0-12 8 6 12-26 10-44-3-16-4-30-10zm1508 62c-53-25-49-52-112-43l42 119c-70-21-74-56-159-28-77-45-109-52-133-96 34-78 146-148 175-181 106-120 184-48 272 70l-18 17c-26 34-60 90-67 143zm-1429-243c147-295 296-182 298-68 1 92-238 323-298 68zm1139-242c-2 3-5 4-5 11l-7 135c-64-21-7-36-97-44l14 99-74 3c13 74 13 34 27 80l-32 7c-32-58 9-62-90-65l41 126c-122-72-93-9-145-26-49-37-66-54-137-97 6-49 111-179 145-215 169-182 244-265 430-26l-68 13zm-516-244c18 47 28 33 37 97-62 45-56-10-58 85l-69-6 12 73c-55 30-44 5-75 65l-6 12c-145-36-13 44-212-100l-51-34c-19-16-6-4-22-25 16-48 155-180 201-221 83-73 152-64 290 27-9 7-5 6-25 17-10 6-11 4-23 11zm1094-56c-1 52 9 64 31 97l-65 28c11 41 30 68 25 117-43-26-3-9-57-25l11 103c-33 19-9 7-67 5l20 117-78 1-8 50c-39-49-76-41-116-89 7-43 29-64 49-115l88-247c10-52 4-84 26-136 65-33 128-3 177 39-6 20-16 43-35 56zm-1725 17c-85-28-18-57-119-53 21 42 46 60 68 108l-102-31c-12 17-3-1-16 29l-12 30-96-36-25 55-113-47-30 56c-64-19-76-61-146-50-3 57 3 19 25 76-83-3-120-48-192-1l178 97c-52 27-144-32-194-14 20 48 68 23 117 92l-117 5c6 33 2 28 21 43 26 20 33 15 49 41-42 23-97 0-139 28l39 39c79 51-49-39 19 9 21 15 9 6 19 21l-156 9c28 51 49 37 105 57-46 36-145 1-188 31 49 61 94 10 129 83-50 18-113 3-167 7l-55 21c74 89 129-27 149 69-80 28-190 9-199 78 93 29 133-33 170 33-51 44-99-8-116 82 116 9 147-48 267-18-7 61-34 12-80 75l46 56c-49 29-42 3-58 56 68 37 80-13 150-23 85-13 29-3 52 10l-20 12c-46 24-52 16-54 71 35 25 37 16 75 36l73 40 11 7c-28 36-57 32-80 69 24 17 51 17 84 15 11 91 11 29 69 83-36 69-65-7-60 88 150 22 72-90 155-33-62 48-58-24-66 69 28 31 42 15 79 42-8 30 0 15-28 35-43 30-41 42-88 66-29 15-25 7-34 38 32 13 29 8 53-6 39-23-1-40 89-21-8 87-99 57-118 134 97 6 26-41 130-18-3 16-3 14-9 25l-26 39 80 28c-16 69-99 80-112 165 71-16 60-42 150-48-5 72-59 65-86 141-40 113 60 109 98 131l-23 67c-51 7-73-7-115-16l15 128c163 21 333-386 378-512l83-361c30-145-11-303 22-444-3-29-36-55-45-88-11-43-8-66-21-105-17-51-45-147-31-201 86-17 187 78 226 102 63 39 16-22 124 58 43 32 80 34 149 31 11 52 9 48 62 53l63-65-3 83c24 20 36 25 53 49l-143-20c19 78 30 54 88 87 50 28 43 40 121 41 6-89-18-44-57-108 140-6 96 62 210 39 1-94-74-43 1-122 37 21 30 29 50 56-17 50-22 30-10 97l70 18 13-35c20-33-8-13 29-27 18 27 19-34 14 43-4 58-36 56-83 56l-40-2c-57-11-89-32-152-37 1 99 67 69 135 81 50 9 12 18 85 31 39 7 63 11 85 40l-269-3c18 31 17 33 75 43 57 10 57-12 78 36l-151 1c5 108 96 54 154 113-249-5-184-36-276-38 7 84 90 66 168 107 67 36 162 38 203 71-70-1-157-42-219-13 10 67 80 62 114 100-105 1-149-31-245-39 30 119 123 43 156 119-64 37-175-54-281-48-4 79 71 77 138 82 29 37 23 17 40 64l-160-21c15 96 55 63 127 89-25 23-47 12-89 21-2 4-40 3 6 61 24 30 15-7 40 44l-173-17c16 78 67 62 124 99-27 22 34 9-47 22h-62c-10 70 40 55 86 86l-190-8c28 68-31 19 53 54 56 23 31-9 60 47l-117 1c13 77 11 21 51 73-88 28-150-35-167 16l105 15c31 48 52 42 77 75l-169 2-10 5c2 3 6 3 7 8 6 20 70 42 84 62-3 2-9 1-11 5l-45 6c-69-3-124-47-173-12 43 56 171 32 218 105l-225-9c10 48 45 50 68 89l-167-9c20 52 91 45 139 70 53 27 27 10 44 47l-200-18c16 70 67 51 119 87-56 35-153 1-218-3 16 74 27 48 103 68-23 23 37 24-58 24-27 0-44-9-84-7l-63 76c-180 1-849-341-1046-478-51-35-23-28-54-57-59-56-102-18-134-158-34-152-63-71-47-219-22-24-39-44-53-64l36-68c-69-107 3-82-10-155-26-46 7-8-45-42 21-60 25-28 42-83-87-117-33-84-35-179 0-11-22-88-25-114-6-52 12-69 6-124-6-52-19-38-23-110-8-135-75-358 40-425 4-141 4-147 61-259 83-163 23-157 152-349 34-50 45-33 85-82 78-94 144-174 245-240 96-64 167-176 283-216 145-51 410-138 572-64 25 54 36 129 95 153 68 27 169 7 228 35v6l-12 16c-3 3-32 28-39 32l-91 49zm245-291c7 93-24 123-118 117-70-5-171-4-210-52-135-164 266-92 328-65zm1156 190c-51-28-6-35-76-24l29 107c-5 3-11 1-12 6-7 19-5-3-50 23 5 65 22 45 31 116-94-24-3-57-128-73 12 117 48 18 80 121-68-17-74-36-133-71-51-31-79-33-124-54-19-278 47-329 93-541 17-80 35-89 126-92 50 36 88 85 149 124l30 197-51-37c-26-21 1-12-39-17-1 66 81 100 76 216zm-1425-416c-19-54-15-21-37-74 73 23 56 2 85 36l-15 77-59 39c-3-18-6 0-3-23l1-10 4-9 24-36zm127-103c16 25 23-13 25 78l-90-73c0-10-1-32 1-41 6-30 5-17 16-32 46 19 18 15 37 53l10 16zm730 0c9 63 9 39 50 89l-71 42 18 90c-51 15-30-6-49 35l53 113c-115-34-17-32-130-60 27 82 82 55 123 189-88-14-29-30-127-41 30 102 44 8 54 112-65-9-79-40-135-58-50-16-94-10-153-27-37-108-52-361-30-475 40-73 248-202 367-127l87 97-59 22zm-893-119c28-45 36-41 86-71 38-23 79-34 100-52 73-61-60 9 163-142 65-44 151-66 238-73 59-4 182 57 235 81l7 56c56 21 64 10 86 49-123 68-256 59-330 94-89 43-121 169-217 207 2-76 43-82 50-159-83 8-51 107-151 163-11-15-14 38-14-28 0-21 100-132 105-175-47 3-39 10-57 42-64-19-26-20-74-32-15 57 11-15-10 43-10 26-9 19-19 34-48-18-12 5-39-32-66-92 36 19-17-33l-55 74c-61-10-10 6-51-18l-37-28zm-157-369l-5 27c-37-25-2-25 5-27zM5631 8118c0-65 162-385 202-456 60-107 115-166 193-307 28-51 16-67 48-119l284-548c51-39 43 1 90-77 129-213 313-538 436-717 25-36 48-54 69-97 56-116 117-144 146-187 20-30 26-78 47-120 39-82 138-256 192-308 68-66 89-101 204-130 85-22 175-39 181 92l-117-15c-16 76 19 103 23 166l-113 8c11 109 41 41 105 87-58 37-89 27-152 36-1 96 11 43 27 123-55 0-86-15-123 16-76 63-57 18-70 62 39 19 74-8 75-11 3-6 10-5 14-7 25 50 59 21 108 43-51 19-109 26-178 35 3 95 51 60 109 93-68 50-103 7-160 45-77 51 62-52-16 14-2 2-7 11-8 8s-5 6-8 9c-70-16-62-1-78 8 19 93 37 39 132 41-27 52-144 53-212 59l21 64c89 9 77-39 176 3-21 25 31 1-28 23l-142 43c-1-3-5 6-8 7l-76 4c-5 49 6 65 60 59 53-6 63-45 100 16l-224 69c9 55-5 31 57 56v126c-37-50-43-110-124-57-21 119 66 22 57 115l-105 9-23 44-81-11c-28 150 80 31 170 79-29 50-157 60-216 69 16 156 63 48 66 151-93-49-53-89-129-117-9 77 41 139 82 186 23 27 21-5 16 54l-75-2-28 78c-45-29-33-46-87-35-8 18-20-31-8 42l47 81c-88 2-24-126-142-60-10 74 2 40 32 86 19 28 24 55 30 89-76-24-18-52-130-57 3 109 20 66 43 126-94-8 3-51-128-61 4 63 8 43 16 88l-77-11c-69 129-76 98-112 224-33 118-114 63-88 204-72 30-67 18-109 85-54 86-62 51-99 96-38 45-22 60-82 112-24 20-70 60-104 81zm1406-1056c-4-70 263-511 288-571l145-357 393-651c159-312 28-579-331-580-181-1-192 155-365 316-59 55-92 116-154 193-92 114-79 149-130 219l-206 308c-48 81 5 28-90 172l-234 364c-91 144-173 282-255 426-79 139-178 296-243 451-139 332-353 579-455 921-53 174-78 380-132 549-21 65-71 193-81 261-8 56 7 469-9 667-7 87 12 84 34 140 24 61 7 82 5 146-87 4-132-50-226-21-75 23-101 83-140 121-270 40-228 38-355 220l-110 181c-107 145-132 248-152 280-24 39-24 20-54 84-80 176-277 481-264 589 87 41 242 130 319 193l142 109c30 23 44 27 76 48s35 36 66 60l154 96c45 32 114 61 159 90l401 238c190 99 208 63 585 289 127 76 565 272 738 256 49-21 349-513 405-602l131-202c280-427 91-289 171-469 83-187 111-115 96-229-23-170-88-149-106-227 73-62 128-87 193-152 63-64 117-88 180-167 213-265 328-385 486-709l126-220c227-351 236-461 366-830 52-147-22-119 99-247 37-39 96-155 123-210 102-210 228-578 45-777-60-65-149-62-244-88-12-76 17-292-123-352-302-131-228-46-390-81-30-68-15-124-43-191-93-218-206-259-389-287-309-47-554 223-645 237z"/>
  <path fill="#fff" d="M7351 10208c46-20 66-11 78 37-26 0-16 7-45-4-43-17-18-21-33-33zm-9-125c35-15 40-16 63 14-4 2 18 26-39 11-42-11-7-13-24-25zm112-83c37-16 57-6 71 28-64 50-56 2-71-28zm-991-42c27-21-6-9 39-13-20 75-32 16-39 13zm957-84c63 3 76-1 96 44-21 6-28 15-58 2-38-16-27-33-38-46zm-23-134c61-2 61-5 81 37 0 0 13 34-53 9-26-10-23-21-28-46zm126-56c65-6 76-16 96 37-14 7-37 20-71 8-28-10-21-15-25-46zm-124-32c37-20 38-7 58 14-56 28-39-1-58-14zm249-46c60 8 79 2 87 60-15 6-35 16-59 5-45-20-24-22-28-65zm-1255 18c13-22-12-12 18-20 56-16 26 2 36 7-12 24 22 12-19 24-52 15-31-7-35-10zm1117-42c2-1 50-58 88 28-73 34-73-15-88-28zm-18-125c36-15 71-9 86 28-53 33-72-18-86-28zm117-88c82 6 85-1 92 60-63 30-84 7-92-60zm-1350 18c-9 30 19 24-45 27 14-23 17-34 45-27zm1228-28c12-45-7-18 42-50 26 21 40 23 36 71-55 2-42 3-78-21zm118-83c37-11 52 10 69 28-56 23-68-27-69-28zm-1387 35c7-45 16-55 59-35-15 36-11 36-59 35zm-97-57c4-37 23-45 55-34-11 33-4 32-55 34zm-76-222c67 2 19-1 34 45-34 10-29 17-72-10 5-4-10-36 38-35zm1293-10c71 25 40-14 56 45-23 14 31 27-40 10-3-1-23-15-39-22-49-22-45 4-51-59 65 7 20 7 74 26zm-171-61c47 5 35-9 41 50-46-5-62 0-41-50zm-165-73c68 1 95-2 106 69-70-1-96-2-106-69zm103-950c7-4 37-30 39-32l12-16v-6c-59-28-160-8-228-35-59-23-70-99-95-153-162-73-428 14-572 64-116 41-187 153-283 216-101 67-168 147-245 240-40 48-51 31-85 82-129 192-69 185-152 349-57 113-57 119-61 259-115 67-48 290-40 425 4 72 17 58 23 110 7 55-11 72-6 124 3 26 25 102 25 114 1 95-52 62 35 179-17 56-21 23-42 83 52 34 19-5 45 42 13 73-58 48 10 155l-36 68c14 20 32 40 53 64-16 149 13 68 47 219 31 139 74 102 134 158 31 29 4 22 54 57 197 136 866 478 1046 478l63-76c41-1 57 7 84 7 95 1 35-1 58-24-75-19-87 6-103-68 65 4 162 38 218 3-52-36-103-17-119-87l200 18c-16-37 9-20-44-47-48-25-119-19-139-70l167 9c-23-39-58-40-68-89l225 9c-47-73-176-49-218-105 50-35 104 9 173 12l45-6c2-4 7-4 11-5-14-19-78-41-84-62-1-4-5-5-7-8l10-5 169-2c-25-33-46-27-77-75l-105-15c16-52 79 11 167-16-40-52-38 4-51-73l117-1c-30-56-5-24-60-47-84-34-25 14-53-54l190 8c-47-31-97-16-86-86h62c81-13 20 0 47-22-57-37-108-21-124-99l173 17c-25-51-16-14-40-44-47-58-8-57-6-61 41-8 64 3 89-21-72-26-112 7-127-89l160 21c-17-47-10-28-40-64-66-5-142-3-138-82 106-6 216 85 281 48-32-76-126 0-156-119 96 7 140 40 245 39-34-39-103-33-114-100 62-29 149 12 219 13-41-33-136-35-203-71-78-41-162-23-168-107 92 2 27 33 276 38-58-59-149-5-154-113l151-1c-21-48-21-26-78-36-58-10-57-12-75-43l269 3c-22-29-46-33-85-40-73-13-35-23-85-31-69-12-135 18-135-81 63 5 95 26 152 37l40 2c47 0 80 2 83-56 5-77 4-16-14-43-37 14-9-6-29 27l-13 35-70-18c-12-67-7-47 10-97-20-27-13-35-50-56-75 79-1 28-1 122-113 22-69-46-210-39 40 64 63 19 57 108-78-1-71-13-121-41-59-33-69-8-88-87l143 20c-18-24-30-29-53-49l3-83-63 65c-53-5-50-1-62-53-69 3-107 1-149-31-108-80-61-19-124-58-39-25-139-119-226-102-14 54 14 150 31 201 13 39 10 62 21 105 8 33 41 60 45 88-33 141 8 299-22 444l-83 361c-45 126-215 532-378 512l-15-128c42 10 64 23 115 16l23-67c-39-22-138-18-98-131 27-76 81-69 86-141-90 6-79 32-150 48 13-85 96-95 112-165l-80-28 26-39c6-10 6-9 9-25-105-22-33 24-130 18 19-77 110-47 118-134-90-19-51-2-89 21-23 14-21 19-53 6 9-31 5-23 34-38 47-24 45-36 88-66 28-19 20-5 28-35-37-27-51-11-79-42 8-93 4-21 66-69-84-58-5 54-155 33-5-96 24-19 60-88-58-54-58 9-69-83-34 2-61 2-84-15 23-38 52-33 80-69l-11-7-73-40c-38-20-40-11-75-36 2-55 8-47 54-71l20-12c-23-13 34-22-52-10-70 11-82 60-150 23 17-53 9-27 58-56l-46-56c46-63 72-14 80-75-120-30-151 27-267 18 17-90 65-38 116-82-37-65-77-4-170-33 8-70 119-50 199-78-20-96-74 19-149-69l55-21c54-4 117 11 167-7-35-74-79-23-129-83 43-30 142 5 188-31-56-20-77-7-105-57l156-9c-10-15 2-6-19-21-68-49 60 42-19-9l-39-39c42-28 97-4 139-28-16-27-24-21-49-41-19-15-15-10-21-43l117-5c-50-69-97-44-117-92 50-18 142 41 194 14l-178-97c71-47 108-2 192 1-22-58-28-19-25-76 70-11 82 31 146 50l30-56 113 47 25-55 96 36 12-30c13-30 3-12 16-29l102 31c-21-48-47-66-68-108 100-4 34 25 119 53l91-49zm-519-1087c57 11 50 11 61 73-61-10-67-1-61-73zm60-231c-1-42 3-38 41-47l-5 51-36-4zm176-171c-37-1-19-7-36-19 6-31 9-39 49-34 50 6 17 0 32 34-8 6 33 21-45 19zm394-714c23-17-38-36 47-15 46 11 3-9 24 29-13 8 31 32-48 14-45-10-7 0-24-28zM5630 8118c34-21 81-60 104-81 60-52 44-67 82-112 37-44 45-10 99-96 42-66 37-55 109-85-26-141 55-85 88-204 36-126 43-95 112-224l77 11c-8-45-13-25-16-88 131 10 34 53 128 61-23-60-40-17-43-126 112 5 54 33 130 57-5-34-11-61-30-89-31-47-42-12-32-86 118-66 54 62 142 60l-47-81c-12-73 0-24 8-42 54-11 42 6 87 35l28-78 75 2c5-59 7-28-16-54-41-47-90-108-82-186 76 28 35 68 129 117-3-103-50 5-66-151 59-9 187-19 216-69-90-48-199 72-170-79l81 11 23-44 105-9c9-93-78 4-57-115 81-53 86 7 124 57v-126c-62-25-48-1-57-56l224-69c-37-61-47-22-100-16-54 6-65-10-60-59l76-4c3-1 7-10 8-7l142-43c59-23 8 2 28-23-99-42-87 6-176-3l-21-64c68-6 184-7 212-59-95-2-112 52-132-41 16-9 8-24 78-8 3-3 7-11 8-9 1 3 6-6 8-8 77-67-61 37 16-14 57-38 92 5 160-45-58-33-105 2-109-93 69-9 127-16 178-35-50-22-83 7-108-43-5 2-12 0-14 7-1 2-36 30-75 11 13-44-6 1 70-62 37-31 68-17 123-16-16-79-29-26-27-123 63-9 94 1 152-36-64-46-94 22-105-87l113-8c-5-63-39-90-23-166l117 15c-6-131-96-114-181-92-115 29-136 64-204 130-54 52-152 227-192 308-20 42-26 90-47 120-29 43-90 71-146 187-21 43-44 61-69 97-123 179-307 504-436 717-47 78-39 38-90 77l-284 548c-32 53-20 68-48 119-77 141-133 201-193 307-40 71-202 391-202 456z"/>
  <path fill="#fff" d="M6888 11323c-223-70-442-176-650-270-181-82-449-244-607-322-168-83-396-250-549-367-110-85-126-221-234-33-97 169 24 211 100 292 186 197 426 366 663 490 56 29 86 60 136 85 267 132 1006 509 1358 483 48-48 146-167 146-251l-363-107zm597-3882c42 15 79 39 103 85 23 45 37 69 37 125-99-4-143-123-140-210zm422-94l-87-97c-120-75-328 54-367 127-23 114-7 366 30 475 59 18 102 12 153 27 56 17 70 48 135 58-11-104-24-10-54-112 98 11 39 27 127 41-42-133-97-107-123-189 113 28 15 27 130 60l-53-113c19-42-2-20 49-35l-18-90 71-42c-41-49-40-26-50-89l59-22zm510 541c5-115-77-150-76-216 40 5 13-4 39 17l51 37-30-197c-61-39-99-88-149-124-90 3-108 12-126 92-46 212-111 263-93 541 45 21 73 23 124 54 59 35 65 54 133 71-32-103-68-4-80-121 126 15 34 48 128 73-9-70-27-50-31-116 44-25 43-4 50-23 2-5 7-3 12-6l-29-107c70-11 25-5 76 24z"/>
  <path fill="#fff" d="M6956 7249l37 28c42 24-10 8 51 18l55-74c53 52-50-60 17 33 27 37-8 14 39 32 10-15 10-8 19-34 22-58-5 14 10-43 48 12 10 14 74 32 18-32 10-39 57-42-5 43-105 155-105 175 0 66 3 13 14 28 100-57 67-155 151-163-7 77-48 83-50 159 96-39 128-164 217-207 74-36 207-26 330-94-22-39-29-27-86-49l-7-56c-53-24-176-85-235-81-87 7-173 29-238 73-223 151-90 81-163 142-22 18-63 29-100 52-50 30-58 27-86 71zm1275 1010c-186-240-261-157-430 26-33 36-139 166-145 215 71 43 88 60 137 97 53 18 23-46 145 26l-41-126c99 4 57 7 90 65l32-7c-14-45-14-6-27-80l74-3-14-99c90 8 33 23 97 44l7-135c0-6 3-7 5-11l68-13zm-584-232c13-7 13-5 23-11 21-11 17-10 25-17-138-91-207-100-290-27-46 41-186 173-201 221 15 21 3 9 22 25l51 34c198 144 67 65 212 100l6-12c31-61 20-35 75-65l-12-73 69 6c2-95-4-40 58-85-9-64-19-50-37-97zm1094-55c19-13 29-35 35-56-48-42-112-72-177-39-21 51-16 84-26 136l-88 247c-20 51-42 71-49 115 40 49 77 40 116 89l8-50 78-1-20-117c59 2 34 14 67-5l-11-103c54 15 14-2 57 25 6-49-14-76-25-117l65-28c-21-34-31-45-31-97zm-289 784c7-53 42-109 67-143l18-17c-88-118-166-190-272-70-29 33-141 102-175 181 24 44 56 52 133 96 85-28 89 7 159 28l-42-119c63-9 58 18 112 43zm-3252 2262c62 70 23 18 85 73l601 373c284 130 770 324 1105 345-34-40-56-34-126-49-158-34-691-239-828-296-183-75-638-330-638-330-63-22-186-109-199-115zm1823-2505c60 255 299 24 298-68-2-114-151-227-298 68zm440 265c160 170 426-9 271-136-152-124-271 54-271 136zm465 235c94 52 229 21 293-42 19-44-80-257-236-100-40 40-49 72-57 142zm-2693 1157c-142-107-394-111-108 107 104 79 104 112 181 124 12-84-22-193-73-231zm1697-2407c39 48 140 47 210 52 94 6 125-24 118-117-62-28-464-99-328 65zm104 3542c42 31 187 57 230 42 20-62-11-117-43-164-49 9-169 95-188 123zm-2284-681c-58-49-19-102-112-141 20 93 71 94 111 142 41 50 44 92 110 140s65 80 128 123l149 95c-5-29-86-108-114-131l-141-110c-39-31-30-30-60-64-30-35-43-29-72-54z"/>
  <path d="M7625 7651c0-56-14-80-37-125-24-46-61-70-103-85-3 86 41 206 140 210z"/>
  <path fill="#fff" d="M6992 7472l-24 36-4 9-1 10c-3 24 0 5 3 23l59-39 15-77c-29-34-12-13-85-36 22 52 18 20 37 74zm62-98l90 73c-2-91-9-53-25-78l-10-16c-19-38 9-33-37-53-11 16-10 3-16 32-2 9-1 31-1 41z"/>
  <path d="M7396 9069c-16-59 15-20-56-45-53-19-9-18-74-26 6 63 3 36 51 59 16 7 36 21 39 22 71 17 17 4 40-10zm-286-110c-11-71-38-68-106-69 10 67 36 67 106 69zm591 471c-7-61-10-54-92-60 8 67 29 90 92 60zm34 236c-8-57-27-52-87-60 4 43-16 45 28 65 23 11 44 0 59-5zm-116 56c-20-54-31-43-96-37 4 31-3 35 25 46 33 12 57-1 71-8zm-54-340c4-48-10-49-36-71-50 32-30 5-42 50 36 24 23 23 78 21zm-779-2952c17 12-1 19 36 19 78 1 37-13 45-19-15-34 18-28-32-34-40-5-43 3-49 34zm812 3181c-38-85-86-29-88-28 15 13 14 62 88 28zm-120 166c-21-43-20-39-81-37 5 25 2 36 28 46 66 25 53-8 53-9zm-831-2853c-11-61-4-61-61-73-6 71 0 63 61 73zm772 2950c10 13 0 30 38 46 30 13 37 4 58-2-20-45-33-41-96-44zm-1411-805c43 27 38 20 72 10-16-46 33-43-34-45-48-1-33 31-38 35zm1208-3333c17 28-21 17 24 28 78 18 34-6 48-14-21-37 22-17-24-29-85-21-24-3-47 15zm308 4291c-14-34-34-43-71-28 15 30 7 78 71 28zm-95 218c-12-48-32-57-78-37 15 13-10 17 33 33 29 11 19 4 45 4zm149-759c-15-37-50-43-86-28 14 10 33 61 86 28zm-369-473c-6-59 6-45-41-50-21 50-5 45 41 50zm-990 300c47 0 43 0 59-35-43-20-52-10-59 35zm1185 784c-23-30-28-29-63-14 17 12-18 13 24 25 57 15 35-8 39-11zm-993-493c-30 9-5-1-18 20 4 3-16 25 35 10 41-12 7 0 19-24-11-5 19-22-36-7zm235-2984l36 4 5-51c-38 9-42 5-41 47zm1028 2685c-17-18-32-38-69-28 1 0 13 51 69 28zm-1553-49c51-2 44-1 55-34-33-11-51-3-55 34zm1335 410c-20-21-21-34-58-14 19 13 2 42 58 14z"/>
  <path fill="#fff" d="M6944 8694c14 7-14 7 30 10 32 2 14-3 26-10-67-38-53-2-56 0z"/>
  <path d="M6214 9415c64-2 36 4 45-27-28-7-31 4-45 27zm286 530c-45 3-12-9-39 13 7 3 18 62 39-13z"/>
  <path fill="#fff" d="M6794 6908l5-27c-7 3-42 2-5 27z"/>
</svg>
